<?xml version="1.0" standalone="no"?>
<!DOCTYPE svg PUBLIC "-//W3C//DTD SVG 20010904//EN"
 "http://www.w3.org/TR/2001/REC-SVG-20010904/DTD/svg10.dtd">
<svg version="1.0" xmlns="http://www.w3.org/2000/svg"
 width="500.000000pt" height="500.000000pt" viewBox="0 0 500.000000 500.000000"
 preserveAspectRatio="xMidYMid meet">

<g transform="translate(0.000000,500.000000) scale(0.100000,-0.100000)"
fill="#000000" stroke="none">
<path d="M0 2500 l0 -2500 2500 0 2500 0 0 2500 0 2500 -2500 0 -2500 0 0
-2500z m3378 1555 c-2 -3 -360 -64 -794 -135 -709 -117 -799 -130 -892 -128
l-103 3 43 71 c24 40 64 99 90 133 l48 61 807 0 c443 0 804 -2 801 -5z m-483
-747 l-760 -131 -319 -4 c-257 -4 -321 -2 -327 9 -10 15 -12 218 -3 242 6 14
110 16 1088 15 l1081 -1 -760 -130z m-150 -623 c-631 -107 -747 -124 -855
-125 l-125 -2 -48 63 c-44 57 -117 173 -117 185 0 2 422 4 938 3 l937 -1 -730
-123z m-582 -731 c59 -10 43 -24 -28 -24 -92 0 -105 -15 -105 -119 0 -64 4
-83 21 -105 18 -23 27 -26 85 -26 63 0 85 -12 42 -24 -13 -3 -42 -6 -64 -6
-75 0 -114 54 -114 160 0 125 43 163 163 144z m970 0 c59 -10 43 -24 -27 -24
-94 0 -112 -24 -104 -145 5 -89 22 -105 105 -105 34 0 63 -4 63 -9 0 -28 -117
-29 -153 -1 -32 26 -52 104 -43 173 13 100 54 128 159 111z m-1413 -14 c0 -5
-20 -10 -45 -10 l-45 0 0 -140 c0 -185 -18 -187 -22 -2 l-3 137 -42 3 c-84 6
-42 22 57 22 60 0 100 -4 100 -10z m230 0 c0 -5 -33 -10 -72 -12 l-73 -3 -3
-51 c-3 -59 4 -64 91 -64 26 0 47 -4 47 -10 0 -6 -30 -10 -70 -10 l-70 0 0
-55 0 -55 75 0 c41 0 75 -4 75 -9 0 -10 -58 -21 -112 -21 -61 0 -68 15 -68
146 0 64 5 124 10 135 9 16 22 19 90 19 44 0 80 -4 80 -10z m330 -60 l0 -70
75 0 75 0 0 70 c0 40 4 70 10 70 6 0 10 -57 10 -150 0 -89 -4 -150 -10 -150
-5 0 -10 30 -12 68 l-3 67 -72 3 -73 3 0 -71 c0 -56 -3 -70 -15 -70 -13 0 -15
23 -15 150 0 127 2 150 15 150 12 0 15 -14 15 -70z m260 -80 c0 -93 -4 -150
-10 -150 -6 0 -10 57 -10 150 0 93 4 150 10 150 6 0 10 -57 10 -150z m180 28
l80 -123 0 123 c0 102 2 122 15 122 13 0 15 -23 15 -150 0 -123 -3 -150 -14
-150 -8 0 -49 54 -92 120 -42 66 -81 120 -86 120 -4 0 -8 -54 -8 -120 0 -73
-4 -120 -10 -120 -6 0 -10 57 -10 150 0 128 2 150 15 150 9 0 51 -54 95 -122z
m200 -28 c0 -127 -2 -150 -15 -150 -13 0 -15 23 -15 150 0 127 2 150 15 150
13 0 15 -23 15 -150z m330 0 c0 -127 -2 -150 -15 -150 -13 0 -15 23 -15 150 0
127 2 150 15 150 13 0 15 -23 15 -150z m241 5 c27 -77 49 -143 49 -147 0 -5
-6 -8 -14 -8 -7 0 -19 20 -26 45 l-13 45 -63 0 -63 0 -12 -41 c-11 -37 -32
-59 -44 -47 -3 2 18 65 45 139 28 74 52 140 55 147 3 8 12 12 21 10 11 -2 32
-49 65 -143z m131 13 l3 -133 73 -3 c55 -2 72 -6 72 -17 0 -12 -16 -15 -72
-15 -40 0 -80 5 -88 10 -12 7 -16 38 -18 150 -3 121 -1 140 12 140 13 0 16
-21 18 -132z m-1692 -278 c47 -13 61 -39 67 -124 6 -86 -11 -145 -47 -163 -43
-22 -115 -16 -147 11 -26 22 -28 31 -31 108 -5 107 12 153 60 167 44 12 57 13
98 1z m556 -24 c24 -27 39 -117 29 -169 -16 -84 -41 -107 -115 -107 -76 0
-101 26 -114 113 -7 51 10 146 30 168 33 37 136 34 170 -5z m228 28 c66 -10
57 -24 -16 -24 -35 0 -68 -4 -75 -8 -45 -29 -45 -204 1 -234 13 -9 63 -10 94
-2 18 5 22 13 22 50 0 44 0 44 -35 44 -36 0 -47 13 -19 24 9 3 31 6 50 6 l34
0 0 -80 c0 -44 -4 -80 -9 -80 -5 0 -11 5 -13 10 -2 7 -14 7 -36 -1 -36 -12
-96 -7 -117 11 -23 19 -38 111 -30 175 5 45 13 65 35 87 30 30 40 32 114 22z
m-1114 -126 l80 -123 0 123 c0 102 2 122 15 122 13 0 15 -23 15 -150 0 -123
-3 -150 -14 -150 -8 0 -49 54 -92 120 -42 66 -81 120 -86 120 -4 0 -8 -54 -8
-120 0 -73 -4 -120 -10 -120 -6 0 -10 57 -10 150 0 128 2 150 15 150 9 0 51
-54 95 -122z m482 -10 l3 -133 78 -3 c59 -2 77 -6 77 -17 0 -12 -15 -15 -71
-15 -111 0 -109 -3 -109 160 0 182 18 188 22 8z m1019 105 c6 -16 30 -83 54
-150 37 -108 40 -123 25 -123 -13 0 -21 13 -29 45 l-11 45 -64 0 -63 0 -13
-45 c-9 -33 -18 -45 -31 -45 -16 0 -17 4 -8 28 6 15 28 74 49 132 52 144 50
140 66 140 8 0 19 -12 25 -27z m313 5 c9 -12 16 -41 16 -63 0 -22 -7 -51 -16
-63 -13 -19 -24 -22 -85 -22 l-69 0 0 -65 c0 -37 -4 -65 -10 -65 -6 0 -10 57
-10 150 l0 150 79 0 c71 0 82 -2 95 -22z m233 14 c20 -12 35 -65 28 -99 -9
-51 -28 -63 -101 -63 l-64 0 0 -65 c0 -51 -3 -65 -15 -65 -13 0 -15 23 -15
150 l0 150 78 0 c42 0 82 -4 89 -8z m121 -99 c-2 -74 -7 -108 -15 -111 -10 -3
-13 23 -13 107 0 93 2 111 15 111 13 0 15 -16 13 -107z m-2358 -23 c0 -11 -7
-20 -15 -20 -8 0 -15 9 -15 20 0 11 7 20 15 20 8 0 15 -9 15 -20z m0 -170 c0
-91 -3 -110 -15 -110 -12 0 -15 19 -15 110 0 91 3 110 15 110 12 0 15 -19 15
-110z m2360 19 c0 -25 -33 -22 -38 4 -2 12 3 17 17 17 15 0 21 -6 21 -21z
m-1770 -327 l0 -88 -45 -2 c-50 -2 -65 13 -65 67 0 41 25 64 61 56 28 -6 29
-5 29 30 0 22 4 34 10 30 6 -3 10 -45 10 -93z m900 53 c0 -33 1 -34 25 -23 38
17 55 -4 55 -68 0 -30 -4 -54 -10 -54 -5 0 -10 25 -10 55 0 56 -6 63 -44 49
-12 -4 -16 -20 -16 -55 0 -27 -4 -49 -10 -49 -6 0 -10 37 -10 90 0 53 4 90 10
90 6 0 10 -16 10 -35z m-1600 15 c0 -5 -11 -10 -25 -10 -24 0 -25 -2 -25 -75
0 -43 -4 -75 -10 -75 -6 0 -10 32 -10 75 0 73 -1 75 -25 75 -14 0 -25 5 -25
10 0 6 27 10 60 10 33 0 60 -4 60 -10z m2530 -5 c-7 -8 -16 -15 -21 -15 -5 0
-6 7 -3 15 4 8 13 15 21 15 13 0 13 -3 3 -15z m-2426 -41 c32 -32 11 -64 -42
-64 -46 0 -37 -24 11 -28 50 -4 47 -22 -3 -22 -29 0 -42 5 -50 19 -35 66 35
145 84 95z m190 10 c12 -5 16 -20 16 -63 l0 -56 -48 0 c-42 0 -47 2 -50 24 -4
29 20 51 55 51 14 0 23 6 23 15 0 11 -12 15 -42 16 -33 0 -38 2 -23 9 25 11
48 12 69 4z m71 -54 c17 -52 29 -57 39 -16 12 50 26 77 36 71 10 -6 -44 -163
-62 -180 -8 -7 -9 -3 -5 15 4 15 -1 41 -12 65 -11 22 -22 55 -26 74 -11 50 10
30 30 -29z m150 -45 c29 0 30 1 33 53 4 70 22 57 22 -16 l0 -58 -45 -2 c-52
-2 -65 13 -65 76 0 60 14 60 20 0 5 -51 6 -53 35 -53z m293 93 c7 -7 12 -35
12 -63 l0 -52 -47 1 c-42 1 -48 4 -51 24 -5 32 15 52 49 52 19 0 29 5 29 15 0
11 -11 15 -42 15 -32 0 -39 3 -28 10 21 13 64 12 78 -2z m77 4 c15 7 29 7 41
0 11 -6 27 -7 42 -1 43 16 62 -4 62 -66 0 -30 -4 -55 -10 -55 -5 0 -10 22 -10
49 0 54 -9 66 -40 56 -16 -5 -20 -15 -20 -56 0 -27 -4 -49 -10 -49 -5 0 -10
22 -10 49 0 54 -9 66 -40 56 -16 -5 -20 -15 -20 -56 0 -27 -4 -49 -10 -49 -6
0 -10 29 -9 68 0 37 3 62 5 55 4 -9 11 -9 29 -1z m256 -2 c14 -8 19 -21 19
-53 0 -52 -13 -67 -57 -67 -27 0 -35 5 -43 26 -15 38 -12 62 10 84 22 22 42
25 71 10z m119 3 c22 -7 21 -8 -15 -13 -50 -6 -56 -33 -8 -38 35 -3 57 -30 47
-56 -4 -11 -19 -16 -50 -16 -52 0 -59 17 -9 22 42 4 47 22 8 26 -34 5 -53 19
-53 41 0 36 30 48 80 34z m208 -5 c7 -7 12 -35 12 -63 l0 -52 -47 1 c-42 1
-48 4 -51 24 -5 32 15 52 49 52 19 0 29 5 29 15 0 11 -11 15 -42 15 -32 0 -39
3 -28 10 21 13 64 12 78 -2z m326 -4 c10 -10 16 -33 16 -63 l0 -47 -47 -2
c-46 -2 -62 8 -63 35 0 21 31 43 62 43 44 0 30 24 -17 28 -28 3 -35 6 -24 13
22 14 56 11 73 -7z m113 9 c14 -6 10 -9 -17 -13 -33 -5 -35 -7 -38 -47 l-3
-43 41 0 c25 0 39 -4 35 -10 -9 -14 -68 -13 -83 2 -19 19 -15 95 6 107 21 13
35 13 59 4z m124 -3 c23 -13 25 -55 3 -64 -9 -3 -27 -6 -40 -6 -15 0 -24 -6
-24 -15 0 -11 11 -15 42 -15 30 0 39 -3 31 -11 -6 -6 -28 -9 -49 -7 l-39 3 -3
50 c-4 66 27 92 79 65z m119 1 c0 -5 -13 -12 -30 -16 -28 -6 -30 -9 -30 -56 0
-27 -4 -49 -10 -49 -6 0 -10 27 -10 61 0 47 3 60 13 56 8 -3 20 -1 28 4 18 11
39 11 39 0z m135 1 c15 7 29 7 41 0 11 -6 27 -7 42 -1 43 16 62 -4 62 -66 0
-30 -4 -55 -10 -55 -5 0 -10 22 -10 49 0 54 -9 66 -40 56 -16 -5 -20 -15 -20
-56 0 -27 -4 -49 -10 -49 -5 0 -10 22 -10 49 0 54 -9 66 -40 56 -16 -5 -20
-15 -20 -56 0 -27 -4 -49 -10 -49 -6 0 -10 29 -9 68 0 37 3 62 5 55 4 -9 11
-9 29 -1z m249 2 c12 -5 16 -20 16 -63 l0 -56 -48 0 c-42 0 -47 2 -50 24 -4
29 20 51 55 51 14 0 23 6 23 15 0 11 -12 15 -42 16 -33 0 -38 2 -23 9 25 11
48 12 69 4z m116 -1 c22 -7 21 -8 -15 -13 -50 -6 -56 -33 -8 -38 35 -3 57 -30
47 -56 -4 -11 -19 -16 -50 -16 -52 0 -59 17 -9 22 42 4 47 22 8 26 -34 5 -53
19 -53 41 0 36 30 48 80 34z"/>
<path d="M3398 1844 c-14 -38 -23 -72 -21 -76 2 -5 24 -8 49 -8 52 0 54 7 20
94 l-22 59 -26 -69z"/>
<path d="M1821 1501 c-36 -36 -38 -174 -3 -213 23 -27 106 -24 133 3 19 19 21
30 17 111 -2 75 -6 92 -22 104 -29 21 -102 18 -125 -5z"/>
<path d="M2334 1499 c-15 -17 -19 -37 -19 -104 0 -104 14 -125 86 -125 76 0
94 31 87 145 -5 83 -23 105 -88 105 -35 0 -52 -5 -66 -21z"/>
<path d="M3052 1437 c-30 -85 -30 -87 21 -87 24 0 46 2 49 5 4 5 -37 134 -46
142 -1 2 -12 -25 -24 -60z"/>
<path d="M3264 1506 c-3 -7 -4 -35 -2 -62 l3 -49 50 -3 c65 -4 87 12 87 61 0
21 -6 44 -12 52 -17 20 -118 21 -126 1z"/>
<path d="M3510 1455 l0 -65 54 0 c64 0 86 16 86 65 0 49 -22 65 -86 65 l-54 0
0 -65z"/>
<path d="M1914 936 c-3 -8 -4 -27 -2 -43 3 -24 7 -28 33 -28 27 0 30 4 33 34
4 35 -9 51 -41 51 -10 0 -20 -6 -23 -14z"/>
<path d="M1342 938 c-20 -20 -14 -29 21 -26 20 2 32 8 32 18 0 19 -36 25 -53
8z"/>
<path d="M1537 893 c-17 -17 -6 -34 20 -31 36 4 45 38 10 38 -13 0 -27 -3 -30
-7z"/>
<path d="M2047 893 c-17 -17 -6 -34 20 -31 36 4 45 38 10 38 -13 0 -27 -3 -30
-7z"/>
<path d="M2382 938 c-13 -13 -15 -37 -6 -62 9 -25 60 -21 67 5 13 49 -29 89
-61 57z"/>
<path d="M2707 893 c-17 -17 -6 -34 20 -31 36 4 45 38 10 38 -13 0 -27 -3 -30
-7z"/>
<path d="M3027 893 c-19 -18 -6 -34 25 -31 44 4 53 38 10 38 -16 0 -32 -3 -35
-7z"/>
<path d="M3277 944 c-17 -17 -5 -34 24 -34 24 0 30 4 27 18 -3 17 -38 29 -51
16z"/>
<path d="M3777 893 c-17 -17 -6 -34 20 -31 36 4 45 38 10 38 -13 0 -27 -3 -30
-7z"/>
</g>
</svg>
